<svg xmlns="http://www.w3.org/2000/svg" viewBox="0 0 33.197 50.021">
	<g id="Layer_2" data-name="Layer 2">
		<g id="Layer_1-2" data-name="Layer 1">
			<path d="M29.92,38.955c-2.13-1.232-4.617-1.681-7.261-2.33,3.128-4.1,6.445-7.768,8.751-12.39C36.926,13.629,28.975.188,17.129.005A16.7,16.7,0,0,0,.15,18.815c.957,7.273,6.3,12.174,10.409,17.93-19.534,3.488-8.166,13.866,5.127,13.2C21.543,50.641,40.811,46.553,29.92,38.955Zm-2.99-32.7c11.186,11.36-2.21,24.4-9.311,33.82-.66.88-1.08,1.37-1.949.17C11.127,32.785,2.237,26.263,2.039,17.036,1.408,3.885,18.093-3.018,26.93,6.255ZM15.269,47.975C6.1,48.239-6.645,41.994,10.94,38.6c1.369-.31.9-.051,2.24,1.52,3.674,4.314,3.089,4.233,6.719.06,1.977-2.272,1.47-2.075,3.13-1.585C39.835,42.6,26.655,48.582,15.269,47.975Z" />
			<path d="M16.559,23.435c8.8.136,8.975-13.695.07-13.67C7.779,9.614,7.706,23.447,16.559,23.435Zm-.02-11.76c6.354-.034,6.42,9.875-.02,9.79C10.265,21.386,10.328,11.79,16.539,11.675Z" />
			<path d="M20.759,6.705a10.635,10.635,0,0,1,6.52,9.24c-.19,2.194,2.352,2.1,1.93-.06.3-4.074-5.232-12.535-9.47-10.75C19.219,6.135,20.079,6.375,20.759,6.705Z" />
			<path d="M16.74,5.855c1.12.019,1.2-1.919-.021-1.88C15.354,3.844,15.412,6.005,16.74,5.855Z" />
		</g>
	</g>
</svg>
